# xmcd
#
# Track frame offsets:
#	150
#	21780
#	42590
#	62468
#	81150
#	99800
#	116655
#	130338
#	148113
#	163973
#	179778
#	196768
#	212130
#	225028
#	238078
#	253743
#	269273
#	287065
#
# Disc length: 4097 seconds
#
# Revision: 3
# Processed by: cddbd v1.5.2PL0 Copyright (c) Steve Scherf et al.
# Submitted via: audiograbber 1.83.01
#
DISCID=050fff12
DTITLE=Watson, Johnny "Guitar" - Lone Ranger
DYEAR=1995
DGENRE=Soul
TTITLE0=If I Had the Power 
TTITLE1=You've Got a Hard Head
TTITLE2=Lovin' You
TTITLE3=It's All About You
TTITLE4=You're the Sweetest I Ever Had
TTITLE5=I Get a Feeling 
TTITLE6=Why Don't You Treat Me Like I'm Your Man
TTITLE7=You Bring Love
TTITLE8=You Stole My Heart
TTITLE9=I Don't Want to Be a Lone Ranger
TTITLE10=Your New Love Is a Player
TTITLE11=Tripping
TTITLE12=Lonely Man's Prayer
TTITLE13=You Make My Heart Want to Sing
TTITLE14=It's Way Too Late
TTITLE15=Love Is Sweet Misery
TTITLE16=You Can Stay But the Noise Must Go
TTITLE17=Strong Vibrations
EXTD=
EXTT0=
EXTT1=
EXTT2=
EXTT3=
EXTT4=
EXTT5=
EXTT6=
EXTT7=
EXTT8=
EXTT9=
EXTT10=
EXTT11=
EXTT12=
EXTT13=
EXTT14=
EXTT15=
EXTT16=
EXTT17=
PLAYORDER=
